<?xml version="1.0" encoding="UTF-8" standalone="no"?>

<svg
   xmlns:svg="http://www.w3.org/2000/svg"
   xmlns="http://www.w3.org/2000/svg"
   version="1.0"
   width="441.60001"
   height="272"
   id="svg2"
   xml:space="preserve"><defs
     id="defs5"/><path
     d="M 318.3053,5.6843419e-14 L 318.64424,182.19385 C 318.64424,193.85569 318.64424,229.36949 229.20374,229.519 L 212.39627,229.519 C 122.9458,229.36949 122.9458,193.85569 122.9458,182.19385 L 123.29471,5.6843419e-14 L 0,5.6843419e-14 L 0.109657,209.53439 C 0.109657,267.49474 162.62181,272 212.43614,272 L 229.17384,272 C 278.9782,272 441.49035,267.49474 441.49035,209.53439 L 441.6,5.6843419e-14 L 318.3053,5.6843419e-14 z"
     id="path23"
     style="fill:#fff"/><path
     d="M 327.81857,182.19285 L 327.85845,8.88991 L 432.43166,8.88991 C 432.43166,8.88991 432.30206,202.59609 432.30206,209.53339 C 432.30206,247.56894 327.89832,262.81904 229.17683,262.81904 C 229.17683,258.02473 229.20673,246.25324 229.20673,238.688 C 278.62231,238.60826 327.81857,228.16244 327.81857,182.19285"
     id="path27"
     style="fill:#005030"/><path
     d="M 113.78443,182.19285 L 113.74455,8.88991 L 9.171339,8.88991 C 9.171339,8.88991 9.290965,202.59609 9.290965,209.53339 C 9.290965,247.56894 113.71464,262.81904 212.43614,262.81904 C 212.43614,258.02473 212.3863,246.25324 212.3863,238.688 C 162.98069,238.60826 113.78443,228.16244 113.78443,182.19285"
     id="path31"
     style="fill:#f47321"/></svg>